<svg width="158" height="58" viewBox="0 0 158 58" fill="none" xmlns="http://www.w3.org/2000/svg">
<g filter="url(#filter0_d)">
<rect x="4" width="150" height="50" rx="5" fill="white"/>
</g>
<path d="M44.6754 37.0001C45.4068 37.0001 46 36.407 46 35.6755V14.3246C46 13.593 45.4068 13 44.6754 13H23.3246C22.5929 13 22 13.593 22 14.3246V35.6755C22 36.407 22.5929 37.0001 23.3246 37.0001H44.6754Z" fill="#395185"/>
<path d="M38.5594 37V27.7059H41.6792L42.1462 24.0839H38.5594V21.7713C38.5594 20.7226 38.8507 20.0079 40.3546 20.0079L42.2726 20.0071V16.7675C41.9407 16.7234 40.8022 16.6248 39.4777 16.6248C36.7123 16.6248 34.8191 18.3127 34.8191 21.4127V24.0839H31.6914V27.7059H34.8191V37H38.5594Z" fill="white"/>
<path d="M73.9922 25.3516H69.4922V30H67.1484V18.625H74.5547V20.5234H69.4922V23.4609H73.9922V25.3516ZM80.3984 30C80.2943 29.7969 80.2188 29.5443 80.1719 29.2422C79.625 29.8516 78.9141 30.1562 78.0391 30.1562C77.2109 30.1562 76.5234 29.9167 75.9766 29.4375C75.4349 28.9583 75.1641 28.3542 75.1641 27.625C75.1641 26.7292 75.4948 26.0417 76.1562 25.5625C76.8229 25.0833 77.7839 24.8411 79.0391 24.8359H80.0781V24.3516C80.0781 23.9609 79.9766 23.6484 79.7734 23.4141C79.5755 23.1797 79.2604 23.0625 78.8281 23.0625C78.4479 23.0625 78.1484 23.1536 77.9297 23.3359C77.7161 23.5182 77.6094 23.7682 77.6094 24.0859H75.3516C75.3516 23.5964 75.5026 23.1432 75.8047 22.7266C76.1068 22.3099 76.5339 21.9844 77.0859 21.75C77.638 21.5104 78.2578 21.3906 78.9453 21.3906C79.987 21.3906 80.8125 21.6536 81.4219 22.1797C82.0365 22.7005 82.3438 23.4349 82.3438 24.3828V28.0469C82.349 28.849 82.4609 29.4557 82.6797 29.8672V30H80.3984ZM78.5312 28.4297C78.8646 28.4297 79.1719 28.3568 79.4531 28.2109C79.7344 28.0599 79.9427 27.8594 80.0781 27.6094V26.1562H79.2344C78.1042 26.1562 77.5026 26.5469 77.4297 27.3281L77.4219 27.4609C77.4219 27.7422 77.5208 27.974 77.7188 28.1562C77.9167 28.3385 78.1875 28.4297 78.5312 28.4297ZM87.5938 28.3359C88.0104 28.3359 88.349 28.2214 88.6094 27.9922C88.8698 27.763 89.0052 27.4583 89.0156 27.0781H91.1328C91.1276 27.651 90.9714 28.1771 90.6641 28.6562C90.3568 29.1302 89.9349 29.5 89.3984 29.7656C88.8672 30.026 88.2786 30.1562 87.6328 30.1562C86.4245 30.1562 85.4714 29.7734 84.7734 29.0078C84.0755 28.237 83.7266 27.1745 83.7266 25.8203V25.6719C83.7266 24.3698 84.0729 23.3307 84.7656 22.5547C85.4583 21.7786 86.4089 21.3906 87.6172 21.3906C88.6745 21.3906 89.5208 21.6927 90.1562 22.2969C90.7969 22.8958 91.1224 23.6953 91.1328 24.6953H89.0156C89.0052 24.2578 88.8698 23.9036 88.6094 23.6328C88.349 23.3568 88.0052 23.2188 87.5781 23.2188C87.0521 23.2188 86.6536 23.4115 86.3828 23.7969C86.1172 24.1771 85.9844 24.7969 85.9844 25.6562V25.8906C85.9844 26.7604 86.1172 27.3854 86.3828 27.7656C86.6484 28.1458 87.0521 28.3359 87.5938 28.3359ZM96.3125 30.1562C95.0729 30.1562 94.0625 29.776 93.2812 29.0156C92.5052 28.2552 92.1172 27.2422 92.1172 25.9766V25.7578C92.1172 24.9089 92.2812 24.151 92.6094 23.4844C92.9375 22.8125 93.401 22.2969 94 21.9375C94.6042 21.5729 95.2917 21.3906 96.0625 21.3906C97.2188 21.3906 98.1276 21.7552 98.7891 22.4844C99.4557 23.2135 99.7891 24.2474 99.7891 25.5859V26.5078H94.4062C94.4792 27.0599 94.6979 27.5026 95.0625 27.8359C95.4323 28.1693 95.8984 28.3359 96.4609 28.3359C97.3307 28.3359 98.0104 28.0208 98.5 27.3906L99.6094 28.6328C99.2708 29.112 98.8125 29.487 98.2344 29.7578C97.6562 30.0234 97.0156 30.1562 96.3125 30.1562ZM96.0547 23.2188C95.6068 23.2188 95.2422 23.3698 94.9609 23.6719C94.6849 23.974 94.5078 24.4062 94.4297 24.9688H97.5703V24.7891C97.5599 24.2891 97.4245 23.9036 97.1641 23.6328C96.9036 23.3568 96.5339 23.2188 96.0547 23.2188ZM108.695 25.8516C108.695 27.2057 108.406 28.263 107.828 29.0234C107.25 29.7786 106.443 30.1562 105.406 30.1562C104.49 30.1562 103.758 29.8047 103.211 29.1016L103.109 30H101.078V18H103.336V22.3047C103.857 21.6953 104.542 21.3906 105.391 21.3906C106.422 21.3906 107.229 21.7708 107.812 22.5312C108.401 23.2865 108.695 24.3516 108.695 25.7266V25.8516ZM106.438 25.6875C106.438 24.8333 106.302 24.2109 106.031 23.8203C105.76 23.4245 105.357 23.2266 104.82 23.2266C104.102 23.2266 103.607 23.5208 103.336 24.1094V27.4453C103.612 28.0391 104.112 28.3359 104.836 28.3359C105.565 28.3359 106.044 27.9766 106.273 27.2578C106.383 26.9141 106.438 26.3906 106.438 25.6875ZM109.742 25.6953C109.742 24.8568 109.904 24.1094 110.227 23.4531C110.549 22.7969 111.013 22.2891 111.617 21.9297C112.227 21.5703 112.932 21.3906 113.734 21.3906C114.875 21.3906 115.805 21.7396 116.523 22.4375C117.247 23.1354 117.651 24.0833 117.734 25.2812L117.75 25.8594C117.75 27.1562 117.388 28.1979 116.664 28.9844C115.94 29.7656 114.969 30.1562 113.75 30.1562C112.531 30.1562 111.557 29.7656 110.828 28.9844C110.104 28.2031 109.742 27.1406 109.742 25.7969V25.6953ZM112 25.8594C112 26.6615 112.151 27.276 112.453 27.7031C112.755 28.125 113.188 28.3359 113.75 28.3359C114.297 28.3359 114.724 28.1276 115.031 27.7109C115.339 27.2891 115.492 26.6172 115.492 25.6953C115.492 24.9089 115.339 24.2995 115.031 23.8672C114.724 23.4349 114.292 23.2188 113.734 23.2188C113.182 23.2188 112.755 23.4349 112.453 23.8672C112.151 24.2943 112 24.9583 112 25.8594ZM118.789 25.6953C118.789 24.8568 118.951 24.1094 119.273 23.4531C119.596 22.7969 120.06 22.2891 120.664 21.9297C121.273 21.5703 121.979 21.3906 122.781 21.3906C123.922 21.3906 124.852 21.7396 125.57 22.4375C126.294 23.1354 126.698 24.0833 126.781 25.2812L126.797 25.8594C126.797 27.1562 126.435 28.1979 125.711 28.9844C124.987 29.7656 124.016 30.1562 122.797 30.1562C121.578 30.1562 120.604 29.7656 119.875 28.9844C119.151 28.2031 118.789 27.1406 118.789 25.7969V25.6953ZM121.047 25.8594C121.047 26.6615 121.198 27.276 121.5 27.7031C121.802 28.125 122.234 28.3359 122.797 28.3359C123.344 28.3359 123.771 28.1276 124.078 27.7109C124.385 27.2891 124.539 26.6172 124.539 25.6953C124.539 24.9089 124.385 24.2995 124.078 23.8672C123.771 23.4349 123.339 23.2188 122.781 23.2188C122.229 23.2188 121.802 23.4349 121.5 23.8672C121.198 24.2943 121.047 24.9583 121.047 25.8594ZM131.258 26.6094L130.445 27.4219V30H128.188V18H130.445V24.6484L130.883 24.0859L133.047 21.5469H135.758L132.703 25.0703L136.023 30H133.43L131.258 26.6094Z" fill="black"/>
<defs>
<filter id="filter0_d" x="0" y="0" width="158" height="58" filterUnits="userSpaceOnUse" color-interpolation-filters="sRGB">
<feFlood flood-opacity="0" result="BackgroundImageFix"/>
<feColorMatrix in="SourceAlpha" type="matrix" values="0 0 0 0 0 0 0 0 0 0 0 0 0 0 0 0 0 0 127 0" result="hardAlpha"/>
<feOffset dy="4"/>
<feGaussianBlur stdDeviation="2"/>
<feComposite in2="hardAlpha" operator="out"/>
<feColorMatrix type="matrix" values="0 0 0 0 0 0 0 0 0 0 0 0 0 0 0 0 0 0 0.25 0"/>
<feBlend mode="normal" in2="BackgroundImageFix" result="effect1_dropShadow"/>
<feBlend mode="normal" in="SourceGraphic" in2="effect1_dropShadow" result="shape"/>
</filter>
</defs>
</svg>
