<svg width="158" height="58" viewBox="0 0 158 58" fill="none" xmlns="http://www.w3.org/2000/svg">
<g filter="url(#filter0_d)">
<rect x="4" width="150" height="50" rx="5" fill="white"/>
</g>
<path d="M54.7666 22.6498H53.8V22.6H43V27.4H49.7818C48.7924 30.1942 46.1338 32.2 43 32.2C39.0238 32.2 35.8 28.9762 35.8 25C35.8 21.0238 39.0238 17.8 43 17.8C44.8354 17.8 46.5052 18.4924 47.7766 19.6234L51.1708 16.2292C49.0276 14.2318 46.1608 13 43 13C36.373 13 31 18.373 31 25C31 31.627 36.373 37 43 37C49.627 37 55 31.627 55 25C55 24.1954 54.9172 23.41 54.7666 22.6498Z" fill="#FFC107"/>
<path d="M32.3838 19.4146L36.3264 22.306C37.3932 19.6648 39.9768 17.8 43.0002 17.8C44.8356 17.8 46.5054 18.4924 47.7768 19.6234L51.171 16.2292C49.0278 14.2318 46.161 13 43.0002 13C38.391 13 34.3938 15.6022 32.3838 19.4146Z" fill="#FF3D00"/>
<path d="M43.0004 36.9999C46.1 36.9999 48.9164 35.8136 51.0458 33.8846L47.3318 30.7419C46.0865 31.6889 44.5649 32.2011 43.0004 32.1999C39.8792 32.1999 37.229 30.2097 36.2306 27.4323L32.3174 30.4472C34.3034 34.3334 38.3366 36.9999 43.0004 36.9999Z" fill="#4CAF50"/>
<path d="M54.7666 22.6498H53.8V22.6H43V27.4H49.7818C49.3085 28.7298 48.456 29.8919 47.3296 30.7426L47.3314 30.7414L51.0454 33.8842C50.7826 34.123 55 31 55 25C55 24.1954 54.9172 23.41 54.7666 22.6498Z" fill="#1976D2"/>
<path d="M85.4922 28.5625C85.0703 29.0677 84.474 29.4609 83.7031 29.7422C82.9323 30.0182 82.0781 30.1562 81.1406 30.1562C80.1562 30.1562 79.2917 29.9427 78.5469 29.5156C77.8073 29.0833 77.2344 28.4583 76.8281 27.6406C76.4271 26.8229 76.2214 25.862 76.2109 24.7578V23.9844C76.2109 22.849 76.401 21.8672 76.7812 21.0391C77.1667 20.2057 77.7188 19.5703 78.4375 19.1328C79.1615 18.6901 80.0078 18.4688 80.9766 18.4688C82.3255 18.4688 83.3802 18.7917 84.1406 19.4375C84.901 20.0781 85.3516 21.013 85.4922 22.2422H83.2109C83.1068 21.5911 82.875 21.1146 82.5156 20.8125C82.1615 20.5104 81.6719 20.3594 81.0469 20.3594C80.25 20.3594 79.6432 20.6589 79.2266 21.2578C78.8099 21.8568 78.599 22.7474 78.5938 23.9297V24.6562C78.5938 25.849 78.8203 26.75 79.2734 27.3594C79.7266 27.9688 80.3906 28.2734 81.2656 28.2734C82.1458 28.2734 82.7734 28.0859 83.1484 27.7109V25.75H81.0156V24.0234H85.4922V28.5625ZM86.8984 25.6953C86.8984 24.8568 87.0599 24.1094 87.3828 23.4531C87.7057 22.7969 88.1693 22.2891 88.7734 21.9297C89.3828 21.5703 90.0885 21.3906 90.8906 21.3906C92.0312 21.3906 92.9609 21.7396 93.6797 22.4375C94.4036 23.1354 94.8073 24.0833 94.8906 25.2812L94.9062 25.8594C94.9062 27.1562 94.5443 28.1979 93.8203 28.9844C93.0964 29.7656 92.125 30.1562 90.9062 30.1562C89.6875 30.1562 88.7135 29.7656 87.9844 28.9844C87.2604 28.2031 86.8984 27.1406 86.8984 25.7969V25.6953ZM89.1562 25.8594C89.1562 26.6615 89.3073 27.276 89.6094 27.7031C89.9115 28.125 90.3438 28.3359 90.9062 28.3359C91.4531 28.3359 91.8802 28.1276 92.1875 27.7109C92.4948 27.2891 92.6484 26.6172 92.6484 25.6953C92.6484 24.9089 92.4948 24.2995 92.1875 23.8672C91.8802 23.4349 91.4479 23.2188 90.8906 23.2188C90.3385 23.2188 89.9115 23.4349 89.6094 23.8672C89.3073 24.2943 89.1562 24.9583 89.1562 25.8594ZM95.9453 25.6953C95.9453 24.8568 96.1068 24.1094 96.4297 23.4531C96.7526 22.7969 97.2161 22.2891 97.8203 21.9297C98.4297 21.5703 99.1354 21.3906 99.9375 21.3906C101.078 21.3906 102.008 21.7396 102.727 22.4375C103.451 23.1354 103.854 24.0833 103.938 25.2812L103.953 25.8594C103.953 27.1562 103.591 28.1979 102.867 28.9844C102.143 29.7656 101.172 30.1562 99.9531 30.1562C98.7344 30.1562 97.7604 29.7656 97.0312 28.9844C96.3073 28.2031 95.9453 27.1406 95.9453 25.7969V25.6953ZM98.2031 25.8594C98.2031 26.6615 98.3542 27.276 98.6562 27.7031C98.9583 28.125 99.3906 28.3359 99.9531 28.3359C100.5 28.3359 100.927 28.1276 101.234 27.7109C101.542 27.2891 101.695 26.6172 101.695 25.6953C101.695 24.9089 101.542 24.2995 101.234 23.8672C100.927 23.4349 100.495 23.2188 99.9375 23.2188C99.3854 23.2188 98.9583 23.4349 98.6562 23.8672C98.3542 24.2943 98.2031 24.9583 98.2031 25.8594ZM105.016 25.7109C105.016 24.4141 105.323 23.3698 105.938 22.5781C106.557 21.7865 107.391 21.3906 108.438 21.3906C109.365 21.3906 110.086 21.7083 110.602 22.3438L110.695 21.5469H112.742V29.7188C112.742 30.4583 112.573 31.1016 112.234 31.6484C111.901 32.1953 111.43 32.612 110.82 32.8984C110.211 33.1849 109.497 33.3281 108.68 33.3281C108.06 33.3281 107.456 33.2031 106.867 32.9531C106.279 32.7083 105.833 32.3906 105.531 32L106.531 30.625C107.094 31.2552 107.776 31.5703 108.578 31.5703C109.177 31.5703 109.643 31.4089 109.977 31.0859C110.31 30.7682 110.477 30.3151 110.477 29.7266V29.2734C109.956 29.862 109.271 30.1562 108.422 30.1562C107.406 30.1562 106.583 29.7604 105.953 28.9688C105.328 28.1719 105.016 27.1172 105.016 25.8047V25.7109ZM107.273 25.875C107.273 26.6406 107.427 27.2422 107.734 27.6797C108.042 28.112 108.464 28.3281 109 28.3281C109.688 28.3281 110.18 28.0703 110.477 27.5547V24C110.174 23.4844 109.688 23.2266 109.016 23.2266C108.474 23.2266 108.047 23.4479 107.734 23.8906C107.427 24.3333 107.273 24.9948 107.273 25.875ZM116.867 30H114.602V18H116.867V30ZM122.625 30.1562C121.385 30.1562 120.375 29.776 119.594 29.0156C118.818 28.2552 118.43 27.2422 118.43 25.9766V25.7578C118.43 24.9089 118.594 24.151 118.922 23.4844C119.25 22.8125 119.714 22.2969 120.312 21.9375C120.917 21.5729 121.604 21.3906 122.375 21.3906C123.531 21.3906 124.44 21.7552 125.102 22.4844C125.768 23.2135 126.102 24.2474 126.102 25.5859V26.5078H120.719C120.792 27.0599 121.01 27.5026 121.375 27.8359C121.745 28.1693 122.211 28.3359 122.773 28.3359C123.643 28.3359 124.323 28.0208 124.812 27.3906L125.922 28.6328C125.583 29.112 125.125 29.487 124.547 29.7578C123.969 30.0234 123.328 30.1562 122.625 30.1562ZM122.367 23.2188C121.919 23.2188 121.555 23.3698 121.273 23.6719C120.997 23.974 120.82 24.4062 120.742 24.9688H123.883V24.7891C123.872 24.2891 123.737 23.9036 123.477 23.6328C123.216 23.3568 122.846 23.2188 122.367 23.2188Z" fill="black"/>
<defs>
<filter id="filter0_d" x="0" y="0" width="158" height="58" filterUnits="userSpaceOnUse" color-interpolation-filters="sRGB">
<feFlood flood-opacity="0" result="BackgroundImageFix"/>
<feColorMatrix in="SourceAlpha" type="matrix" values="0 0 0 0 0 0 0 0 0 0 0 0 0 0 0 0 0 0 127 0" result="hardAlpha"/>
<feOffset dy="4"/>
<feGaussianBlur stdDeviation="2"/>
<feComposite in2="hardAlpha" operator="out"/>
<feColorMatrix type="matrix" values="0 0 0 0 0 0 0 0 0 0 0 0 0 0 0 0 0 0 0.25 0"/>
<feBlend mode="normal" in2="BackgroundImageFix" result="effect1_dropShadow"/>
<feBlend mode="normal" in="SourceGraphic" in2="effect1_dropShadow" result="shape"/>
</filter>
</defs>
</svg>
