<svg width="60" height="100" viewBox="0 0 60 100" fill="none" xmlns="http://www.w3.org/2000/svg">
<path d="M6.52959 57.9876H6.51842L47.7301 96.757L47.7317 96.7586C49.832 98.7404 52.4756 98.9167 54.6328 97.8632C56.8038 96.8031 58.5 94.4772 58.5 91.3555L58.5 8.63165L58.5 8.63046C58.5011 7.23842 58.1286 5.88277 57.4366 4.72678L58.7205 3.95825L57.4366 4.72678C56.7451 3.57156 55.7686 2.67158 54.6366 2.1191C53.5061 1.56737 52.2598 1.38067 51.0426 1.57406C49.8247 1.76758 48.6707 2.33641 47.7229 3.22936L47.7222 3.22994L3.77079 44.5919L3.76997 44.5926C3.06536 45.2547 2.4937 46.0779 2.09963 47.011C1.7055 47.9441 1.5 48.9614 1.5 49.9936C1.5 51.0257 1.7055 52.043 2.09963 52.9762C2.4937 53.9092 3.06536 54.7324 3.76997 55.3945L6.52959 57.9876Z" stroke="#243665" stroke-width="3"/>
</svg>
