<svg width="528" height="443" viewBox="0 0 528 443" fill="none" xmlns="http://www.w3.org/2000/svg">
<path d="M4.19603 1.57248C2.79735 3.49274 2.27285 15.0143 1.92318 54.9905C1.92318 61.1004 2.62252 67.5594 3.49669 69.4796C4.5457 71.3999 4.72053 72.7964 3.84636 72.7964C2.97219 72.7964 2.27285 76.9861 2.44768 81.874C2.62252 86.9365 2.09801 91.8244 1.57351 92.8718C0 95.1412 2.97219 113.296 5.0702 114.693C6.29404 115.391 6.29404 117.661 5.41987 120.803C4.5457 123.77 3.67152 124.643 3.67152 122.898C3.49669 119.406 0 118.708 0 122.374C0 123.596 0.874172 127.262 1.92318 130.229C3.32185 134.419 3.49669 137.038 2.09801 140.005C1.04901 142.449 0.874172 144.719 1.57351 145.242C2.44768 145.766 2.79735 158.859 2.27285 174.395C1.22384 207.563 1.22384 203.897 2.62252 223.798C3.67152 241.081 3.67152 261.331 2.44768 278.787C2.09801 285.072 1.74834 291.356 1.92318 292.753C1.92318 294.149 1.92318 303.227 1.74834 312.828V330.285L20.4556 330.111C30.9457 330.111 41.0861 329.412 43.0093 328.714C45.2821 327.841 47.2053 328.19 47.9046 329.238C49.4781 331.682 69.0596 331.682 73.7801 329.238C75.7033 328.19 79.0252 327.841 81.1232 328.365C84.9695 329.238 85.1444 329.936 83.7457 338.839C82.8715 343.901 80.5987 351.582 78.6755 355.772C76.7523 359.962 75.1788 365.548 75.1788 367.992C75.1788 373.229 69.0596 397.669 66.7868 402.207C65.9126 403.953 63.4649 412.332 61.3669 421.061C59.4437 429.615 57.1709 438.692 56.4715 441.136C55.5973 444.627 57.5205 443.58 67.4861 434.852C74.1298 428.916 87.0675 418.442 96.1589 411.459C105.25 404.651 113.642 397.145 114.866 395.225C115.915 393.13 117.314 391.559 117.838 391.733C118.363 391.908 124.132 387.02 130.601 380.91C137.07 374.8 143.015 369.563 143.889 369.563C144.588 369.563 146.511 368.166 148.26 366.595C167.142 348.44 176.758 339.886 181.128 337.093C183.926 335.348 187.073 332.729 188.122 331.332C189.695 329.238 196.339 328.714 220.466 328.539C239.698 328.539 252.286 327.667 254.559 326.445C256.657 325.223 259.105 325.048 260.503 325.921C261.902 326.794 273.616 326.968 286.728 326.445C324.143 324.873 356.662 324.873 356.662 326.445C356.662 327.317 358.236 327.317 360.159 326.794C362.082 326.095 381.838 325.746 403.868 325.572C426.072 325.572 443.73 325.048 443.205 324.35C442.856 323.477 446.877 323.302 452.471 323.651C457.891 324.175 466.458 324.524 471.179 324.699C476.074 324.873 480.795 325.572 481.844 326.27C484.466 328.016 511.74 326.27 515.762 324.175C517.685 323.128 521.181 322.779 523.629 323.477C526.252 324.175 528 323.826 528 322.604C528 321.557 526.426 320.509 524.503 320.509C514.013 319.811 510.167 319.986 509.468 320.858C509.118 321.557 504.572 321.557 499.677 321.208C494.607 320.684 480.445 320.16 468.207 319.986C455.793 319.986 445.828 319.287 445.828 318.589C445.828 316.669 430.967 318.764 430.442 320.684C429.918 321.906 428.519 321.731 426.072 320.335C423.799 318.938 418.728 318.065 413.483 318.414C405.266 318.938 375.195 318.938 359.285 318.24C355.438 318.24 351.767 317.367 351.068 316.494C350.543 315.621 346.347 315.621 341.277 316.669C335.857 317.716 331.311 317.716 329.563 316.843C326.416 314.923 316.45 316.669 316.45 319.113C316.45 321.557 311.73 320.858 310.681 318.24C309.632 315.796 301.415 315.621 294.072 317.891C292.323 318.589 287.777 317.716 284.106 316.145C278.511 313.876 276.763 313.701 273.266 315.621C269.944 317.367 268.721 317.367 267.672 315.796C266.797 314.225 264.35 314.399 257.356 316.32C249.139 318.764 247.391 318.764 239.174 316.32C228.509 313.177 229.033 313.352 229.033 315.272C229.033 316.145 230.432 317.367 232.18 317.716C233.928 318.24 233.229 318.589 230.432 318.764C227.634 318.764 225.536 318.24 225.536 317.367C225.536 316.494 216.97 315.97 205.955 316.494C190.919 316.843 186.024 317.716 184.975 319.636C184.101 321.033 182.527 321.906 181.303 321.382C180.079 321.033 177.981 322.429 176.758 324.873C175.359 327.143 167.841 334.475 159.799 341.108C151.756 347.567 145.113 354.026 145.113 355.423C145.113 356.645 144.064 357.343 142.665 356.82C141.266 356.296 139.168 356.994 138.119 358.391C136.895 359.787 134.972 360.835 133.923 360.835C132.874 361.009 128.503 365.723 124.132 371.309C118.713 378.466 115.391 381.608 113.293 381.085C111.37 380.561 108.572 382.481 105.775 385.798C103.502 388.94 100.355 392.606 98.7815 394.003C97.2079 395.399 93.5364 399.065 90.5642 402.207C84.9695 407.968 79.5497 408.317 81.298 402.556C81.9973 400.636 81.6477 399.24 80.5987 399.24C77.6265 399.24 80.4238 394.177 84.0954 393.13C86.543 392.257 87.2424 391.035 86.543 388.766C86.0185 386.845 86.3682 383.878 87.4172 381.957C88.4662 379.863 90.3894 371.134 91.9629 362.231C94.4106 346.171 97.0331 335.173 99.6556 328.539C100.53 326.619 101.579 322.779 102.278 320.16C103.327 315.098 103.327 315.098 96.1589 316.32C92.1377 317.018 85.494 316.669 80.5987 315.272C74.6543 313.701 69.0596 313.701 61.8914 314.748C56.1219 315.621 45.8066 315.796 38.6384 315.098C31.645 314.399 24.6517 314.399 23.0781 315.272C21.3298 316.32 19.4066 315.97 17.8331 314.225C15.7351 312.13 15.5603 308.115 16.4344 292.578C17.1338 280.708 16.9589 272.503 15.9099 271.281C15.0358 270.059 14.8609 266.044 15.7351 261.33C17.1338 252.777 16.6093 233.4 14.6861 226.417C12.4132 218.561 12.9377 193.249 15.3854 191.678C16.9589 190.63 17.1338 189.059 15.9099 185.917C15.0358 183.473 14.5113 181.029 14.6861 180.854C15.0358 180.505 15.7351 177.538 16.2596 174.395C17.1338 170.031 16.7841 168.809 14.8609 169.158C11.7139 169.857 11.3642 167.936 13.9868 161.826C15.3854 158.51 15.5603 154.32 14.6861 150.13C13.9868 146.464 13.4623 140.354 13.6371 136.514C13.8119 128.309 13.8119 131.801 13.1126 87.1111C12.7629 67.7339 12.0636 49.928 11.5391 47.484C11.0146 45.2146 11.1894 41.5487 12.0636 39.1047C12.9377 36.8353 13.1126 30.0272 12.4132 23.7427C11.3642 15.7126 11.7139 12.0466 13.2874 10.4755C15.5603 8.20609 14.6861 1.22336 12.2384 1.22336C11.3642 1.22336 9.61589 0.699646 8.21722 0.175934C6.81854 -0.347778 4.89536 0.350494 4.19603 1.57248Z" fill="black"/>
</svg>
