<svg width="60" height="100" viewBox="0 0 60 100" fill="none" xmlns="http://www.w3.org/2000/svg">
<path d="M57.2652 56.4876L13.2977 97.8495C8.12461 102.731 2.94913e-06 98.7637 2.94913e-06 91.3555L2.94913e-06 8.63165C-0.00131902 6.97369 0.441823 5.35046 1.27636 3.95634C2.11091 2.56223 3.30147 1.45634 4.70548 0.771088C6.10949 0.0858383 7.66743 -0.149712 9.19273 0.0926437C10.718 0.334999 12.146 1.04499 13.3057 2.13759L57.2572 43.4995C58.1187 44.309 58.8091 45.3073 59.2822 46.4274C59.7552 47.5474 60 48.7634 60 49.9936C60 51.2237 59.7552 52.4397 59.2822 53.5598C58.8091 54.6798 58.1187 55.6781 57.2572 56.4876H57.2652Z" fill="#243665"/>
</svg>
