<svg width="220" height="325" viewBox="0 0 220 325" fill="none" xmlns="http://www.w3.org/2000/svg">
<path fill-rule="evenodd" clip-rule="evenodd" d="M109.902 0C132.858 0.0653964 154.854 9.21352 171.087 25.4457C187.319 41.6779 196.467 63.6748 196.532 86.6305V176.196H23.2715V86.6305C23.3369 63.6748 32.485 41.6779 48.7172 25.4457C64.9494 9.21352 86.9462 0.0653964 109.902 0ZM52.6875 146.545H167.116V86.8653C167.116 71.6911 161.088 57.1383 150.359 46.4086C139.629 35.6788 125.076 29.6508 109.902 29.6508C94.7277 29.6508 80.175 35.6788 69.4452 46.4086C58.7154 57.1383 52.6875 71.6911 52.6875 86.8653V146.545Z" fill="#E98901"/>
<path fill-rule="evenodd" clip-rule="evenodd" d="M13.8796 108.52H205.925C209.608 108.533 213.135 110.003 215.738 112.608C218.341 115.214 219.807 118.743 219.818 122.425V310.27C219.804 313.949 218.335 317.474 215.733 320.074C213.13 322.674 209.604 324.14 205.925 324.15H13.8796C10.2017 324.14 6.67736 322.674 4.07666 320.073C1.47595 317.473 0.0103265 313.948 0 310.27V122.425C0.00686824 118.744 1.47053 115.215 4.07124 112.609C6.67195 110.004 10.1982 108.533 13.8796 108.52Z" fill="#FFB70C"/>
<path fill-rule="evenodd" clip-rule="evenodd" d="M109.902 108.52H205.925C209.608 108.533 213.135 110.003 215.738 112.608C218.341 115.214 219.807 118.743 219.818 122.425V310.27C219.804 313.949 218.335 317.474 215.733 320.074C213.13 322.674 209.604 324.14 205.925 324.15H109.902V108.52Z" fill="#FFC83B"/>
<path fill-rule="evenodd" clip-rule="evenodd" d="M119.674 219.022V246.794C119.67 249.394 118.635 251.886 116.796 253.722C114.957 255.559 112.464 256.591 109.864 256.591C107.273 256.581 104.791 255.544 102.962 253.708C101.133 251.872 100.107 249.386 100.107 246.794V219.022C96.315 217.193 93.1121 214.337 90.8616 210.779C88.6111 207.221 87.4032 203.104 87.375 198.894C87.3938 193.024 89.6782 187.388 93.7516 183.162C97.825 178.935 103.373 176.444 109.238 176.209C114.388 176.073 119.429 177.706 123.522 180.834C127.615 183.963 130.512 188.399 131.732 193.404C132.952 198.409 132.421 203.682 130.227 208.343C128.033 213.004 124.309 216.773 119.674 219.022Z" fill="#160F30"/>
<path opacity="0.54" fill-rule="evenodd" clip-rule="evenodd" d="M44.4831 82.8736C45.5514 66.2309 52.9019 50.6155 65.0472 39.1869C77.1926 27.7584 93.2259 21.3703 109.903 21.3153C120.26 21.3006 130.469 23.7746 139.671 28.5291C144.889 32.2599 152.207 19.5542 139.671 14.258C130.235 10.3422 120.119 8.3295 109.903 8.33571C89.8081 8.40267 70.5029 16.1665 55.9569 30.0306C41.411 43.8948 32.73 62.8054 31.6992 82.8736C32.2471 88.796 44.3527 88.7829 44.4831 82.8736Z" fill="#FEFEFE"/>
</svg>
