<svg width="555" height="302" viewBox="0 0 555 302" fill="none" xmlns="http://www.w3.org/2000/svg">
<path d="M225.443 2.56866C223.87 4.31854 222.821 4.31854 221.074 2.91864C219.501 1.69373 213.734 1.34375 203.772 2.0437C195.559 2.56866 182.277 3.61859 174.063 4.14355C163.752 4.84351 159.208 4.66852 159.208 3.26862C159.208 2.21869 157.81 1.34375 156.237 1.34375C153.441 1.34375 153.441 1.69373 155.713 3.26862C157.81 4.84351 157.635 5.01849 154.839 3.96857C152.917 3.26862 148.722 2.39368 145.751 1.86871C141.033 0.993774 139.984 1.51874 139.984 3.96857C139.984 6.76837 139.635 6.76837 135.615 4.14355C133.169 2.56866 130.198 1.69373 129.149 2.39368C126.877 3.79358 112.721 4.31854 50.5062 5.19348C27.6124 5.54346 8.91286 5.19348 8.91286 4.31854C8.91286 3.4436 7.16524 3.09363 5.06809 3.4436C2.2719 3.79358 1.04857 5.36847 0.699047 9.56818L0 14.9928L18.0005 15.3427C27.9619 15.5177 40.37 15.6927 45.6128 15.8677C50.8557 16.2177 56.0986 15.6927 56.9724 15.1678C58.0209 14.4678 62.0405 14.4678 66.2347 15.3427C74.099 16.7426 93.1481 15.6927 94.5462 13.7679C95.0704 13.2429 97.6919 12.543 100.313 12.368C104.857 12.193 105.032 12.368 102.061 14.6428C99.2647 16.7426 99.4395 16.9176 104.508 17.0926C107.479 17.0926 110.275 16.0427 110.799 14.8178C111.323 13.2429 112.372 13.2429 115.343 14.9928C117.615 16.3927 120.236 16.7426 121.285 15.8677C122.508 14.9928 130.023 14.6428 138.237 14.8178C146.45 14.9928 160.257 15.1678 168.82 15.1678C185.597 14.9928 236.278 15.3427 242.22 15.6927C244.142 15.6927 248.162 15.6927 250.958 15.5177C253.929 15.3427 264.764 15.6927 275.25 16.2177C289.93 17.2676 294.474 16.9176 295.697 15.1678C296.746 13.4179 297.445 13.4179 299.717 15.1678C301.814 16.9176 308.28 17.0926 331.348 15.6927C347.252 14.8178 362.806 14.4678 365.951 15.1678C368.922 15.8677 386.573 16.2177 404.748 16.0427C423.098 15.8677 444.07 16.3927 451.759 17.4426C459.274 18.3175 466.614 18.6675 468.187 17.9676C473.605 16.0427 538.441 15.6927 538.616 17.7926C539.49 25.842 539.839 32.6665 540.189 50.1653C540.364 61.1895 541.412 71.5137 542.461 73.2636C543.859 75.5384 543.859 76.9383 542.286 78.6882C540.888 80.4381 540.888 84.4628 542.111 93.0372C542.985 100.212 543.16 105.986 542.111 107.736C541.237 109.311 541.237 112.286 541.937 114.386C542.81 116.485 542.985 118.76 542.461 119.285C541.762 119.81 542.111 120.335 543.16 120.335C544.208 120.335 545.082 123.135 544.907 126.46C544.733 129.785 544.383 132.584 543.859 132.584C543.16 132.584 542.985 141.509 543.16 152.358C543.509 163.032 543.684 173.531 543.509 175.456C542.985 211.504 542.985 228.827 543.684 228.827C545.432 228.827 545.432 245.276 543.859 247.901C542.81 249.476 542.985 251.926 544.034 254.376C545.432 257.35 545.432 259.1 544.034 260.675C541.237 264.175 541.762 284.473 544.733 290.248C546.131 293.223 546.48 295.323 545.432 295.323C544.558 295.323 543.684 297.072 543.684 299.172C543.684 305.647 547.354 300.047 548.403 291.998C549.102 287.098 548.752 284.823 547.354 284.823C546.131 284.823 545.781 283.948 546.48 282.724C547.179 281.674 547.878 276.424 548.228 270.999C550.675 217.803 550.675 218.328 547.529 218.328C544.908 218.328 544.907 217.978 547.179 216.578C549.277 215.353 549.801 209.929 549.976 188.23C550.325 158.307 550.5 155.333 552.597 152.533C553.471 151.483 553.296 148.158 552.247 145.008C550.675 140.809 550.675 138.184 552.247 135.034C553.82 131.534 553.646 129.785 551.199 126.285C548.927 122.61 548.752 121.56 550.675 120.335C552.247 119.285 552.597 116.485 551.723 110.186C551.024 104.061 551.374 100.212 553.296 96.5369C555.568 91.9872 555.568 91.2873 553.296 89.5374C550.675 87.6125 549.626 83.2379 552.073 83.9378C554.345 84.8128 554.345 81.138 552.247 73.4386C550.675 67.839 550.675 64.8642 552.247 61.5394C554.519 56.2898 554.869 49.8153 552.597 53.49C551.374 55.4149 550.849 55.2399 549.976 52.965C548.403 48.9403 548.578 48.5904 551.723 48.5904C553.995 48.5904 554.17 47.5404 553.121 42.8158C552.247 39.841 551.723 33.0165 551.898 27.7668C552.073 22.5172 551.548 16.9176 550.5 15.1678C549.451 13.2429 549.626 11.668 550.675 10.9681C551.548 10.4431 552.422 8.69324 552.422 7.46832C552.422 5.36847 548.228 5.01849 529.878 5.36847C517.47 5.54346 507.683 5.19348 508.207 4.31854C509.431 2.39368 498.77 2.91864 487.411 5.19348C478.673 6.94336 476.75 6.94336 475.527 4.84351C474.304 2.74365 472.731 2.74365 466.09 4.49353C460.672 5.89343 456.828 6.06842 453.682 4.84351C450.711 3.61859 449.488 3.61859 450.187 4.84351C451.585 7.11835 444.944 7.11835 437.079 4.84351C426.768 1.86871 408.943 0.993774 405.972 3.4436C402.651 6.24341 403.176 6.4184 398.632 2.21869C395.836 -0.23114 394.438 -0.581116 393.913 0.818787C393.389 2.21869 391.816 2.39368 389.02 1.34375C386.573 0.468811 379.233 0.293823 371.369 1.34375C363.854 2.0437 353.893 2.39368 348.999 1.86871C344.106 1.34375 338.164 1.69373 335.892 2.56866C332.921 3.79358 330.125 3.4436 326.63 1.86871C322.96 -0.0561523 319.639 -0.23114 313.348 0.818787C304.26 2.56866 275.949 2.39368 272.978 0.643799C271.929 -0.0561523 270.182 -0.0561523 268.958 0.643799C266.337 2.21869 244.492 2.56866 234.705 1.16876C229.637 0.468811 226.666 0.818787 225.443 2.56866Z" fill="black"/>
</svg>
